<svg width="22" height="22" viewBox="0 0 28 35" fill="none" xmlns="http://www.w3.org/2000/svg">
    <path
        d="M11.2363 9.46094L11.2363 12.4961C11.2363 14.1276 11.1087 15.5039 10.8535 16.625C10.6074 17.7461 10.252 18.6484 9.78711 19.332C9.32227 20.0156 8.76172 20.5124 8.10547 20.8223C7.45833 21.123 6.72917 21.2734 5.91797 21.2734C5.27995 21.2734 4.68294 21.1777 4.12695 20.9863C3.58008 20.7949 3.08789 20.4896 2.65039 20.0703C2.21289 19.6419 1.83919 19.0859 1.5293 18.4023C1.2194 17.7188 0.982422 16.8893 0.818359 15.9141C0.654297 14.9388 0.572266 13.7995 0.572266 12.4961L0.572266 9.46094C0.572266 7.82943 0.69987 6.46224 0.955078 5.35938C1.21029 4.25651 1.57031 3.3724 2.03516 2.70703C2.50911 2.03255 3.06966 1.54948 3.7168 1.25781C4.37305 0.966146 5.10221 0.820313 5.9043 0.820313C6.55143 0.820313 7.14844 0.916016 7.69531 1.10742C8.2513 1.28971 8.74349 1.58594 9.17187 1.99609C9.60937 2.39714 9.98307 2.9349 10.293 3.60938C10.6029 4.27474 10.8353 5.09049 10.9902 6.05664C11.1543 7.02279 11.2363 8.15755 11.2363 9.46094ZM8.83008 12.9062L8.83008 9.03711C8.83008 8.14388 8.78906 7.36003 8.70703 6.68555C8.625 6.00195 8.50651 5.41862 8.35156 4.93555C8.19661 4.45247 7.99609 4.06055 7.75 3.75977C7.51302 3.45898 7.23958 3.24023 6.92969 3.10352C6.61979 2.95768 6.27799 2.88477 5.9043 2.88477C5.43945 2.88477 5.02474 2.9987 4.66016 3.22656C4.30469 3.44531 3.99935 3.79622 3.74414 4.2793C3.49805 4.76237 3.3112 5.39583 3.18359 6.17969C3.05599 6.96354 2.99219 7.91602 2.99219 9.03711L2.99219 12.9062C2.99219 13.7995 3.0332 14.5879 3.11523 15.2715C3.20638 15.9551 3.32943 16.5475 3.48437 17.0488C3.64844 17.541 3.84896 17.9466 4.08594 18.2656C4.32292 18.5846 4.59635 18.8216 4.90625 18.9766C5.21615 19.1224 5.55339 19.1953 5.91797 19.1953C6.40104 19.1953 6.82031 19.0768 7.17578 18.8398C7.54036 18.6029 7.8457 18.2337 8.0918 17.7324C8.33789 17.222 8.52018 16.5703 8.63867 15.7773C8.76628 14.9753 8.83008 14.0182 8.83008 12.9062ZM21.6406 0.984375L21.6406 21H19.2207L19.2207 4.14258L15.0371 6.00195L15.0371 3.71875L21.2715 0.984375H21.6406Z"
        fill="#DF3D3A" />
</svg>