<svg width="26" height="22" viewBox="0 0 28 35" fill="none" xmlns="http://www.w3.org/2000/svg">
    <path
        d="M11.2363 12.5098C11.2363 15.4447 10.8079 17.6413 9.95117 19.0996C9.0944 20.5488 7.75 21.2734 5.91797 21.2734C4.14062 21.2734 2.81445 20.5762 1.93945 19.1816C1.06445 17.7871 0.608724 15.6908 0.572266 12.8926L0.572266 9.47461C0.572266 6.56706 1.00065 4.39779 1.85742 2.9668C2.72331 1.53581 4.06771 0.820313 5.89062 0.820313C7.6862 0.820313 9.01237 1.49935 9.86914 2.85742C10.735 4.21549 11.1908 6.27083 11.2363 9.02344L11.2363 12.5098ZM8.81641 9.05078C8.81641 6.94531 8.58398 5.39583 8.11914 4.40234C7.6543 3.39974 6.91146 2.89844 5.89062 2.89844C4.89714 2.89844 4.16797 3.39062 3.70312 4.375C3.23828 5.35026 2.99674 6.82682 2.97852 8.80469L2.97852 12.9062C2.97852 15.0026 3.22005 16.5794 3.70312 17.6367C4.1862 18.6849 4.92448 19.209 5.91797 19.209C6.90234 19.209 7.62695 18.7122 8.0918 17.7188C8.55664 16.7253 8.79818 15.2077 8.81641 13.166L8.81641 9.05078ZM25.5645 21H14.4355V19.1816L20.1094 11.6621C20.9661 10.5046 21.5586 9.55664 21.8867 8.81836C22.224 8.07096 22.3926 7.28255 22.3926 6.45313C22.3926 5.39583 22.1465 4.53906 21.6543 3.88281C21.1621 3.22656 20.515 2.89844 19.7129 2.89844C18.7012 2.89844 17.9173 3.24935 17.3613 3.95117C16.8145 4.64388 16.541 5.64648 16.541 6.95898L14.1211 6.95898C14.1211 5.12695 14.6224 3.64583 15.625 2.51563C16.6276 1.38542 17.9902 0.820313 19.7129 0.820313C21.2988 0.820313 22.5475 1.30794 23.459 2.2832C24.3704 3.24935 24.8262 4.53906 24.8262 6.15234C24.8262 8.12109 23.8008 10.4499 21.75 13.1387L17.3203 18.9355H25.5645V21Z"
        fill="#DF3D3A" />
</svg>