<svg width="26" height="22" viewBox="0 0 28 35" fill="none" xmlns="http://www.w3.org/2000/svg">
    <path
        d="M11.6362 9.46094L11.6362 12.4961C11.6362 14.1276 11.5086 15.5039 11.2534 16.625C11.0073 17.7461 10.6519 18.6484 10.187 19.332C9.72217 20.0156 9.16162 20.5124 8.50537 20.8223C7.85824 21.123 7.12907 21.2734 6.31787 21.2734C5.67985 21.2734 5.08285 21.1777 4.52686 20.9863C3.97998 20.7949 3.48779 20.4896 3.05029 20.0703C2.61279 19.6419 2.2391 19.0859 1.9292 18.4023C1.6193 17.7188 1.38232 16.8893 1.21826 15.9141C1.0542 14.9388 0.972168 13.7995 0.972168 12.4961L0.972168 9.46094C0.972168 7.82943 1.09977 6.46224 1.35498 5.35938C1.61019 4.25651 1.97021 3.3724 2.43506 2.70703C2.90902 2.03255 3.46956 1.54948 4.1167 1.25781C4.77295 0.966146 5.50212 0.820313 6.3042 0.820313C6.95133 0.820313 7.54834 0.916016 8.09521 1.10742C8.6512 1.28971 9.14339 1.58594 9.57178 1.99609C10.0093 2.39714 10.383 2.9349 10.6929 3.60938C11.0028 4.27474 11.2352 5.09049 11.3901 6.05664C11.5542 7.02279 11.6362 8.15755 11.6362 9.46094ZM9.22998 12.9062L9.22998 9.03711C9.22998 8.14388 9.18896 7.36003 9.10693 6.68555C9.0249 6.00195 8.90641 5.41862 8.75146 4.93555C8.59652 4.45247 8.396 4.06055 8.1499 3.75977C7.91292 3.45898 7.63949 3.24023 7.32959 3.10352C7.01969 2.95768 6.6779 2.88477 6.3042 2.88477C5.83936 2.88477 5.42464 2.9987 5.06006 3.22656C4.70459 3.44531 4.39925 3.79622 4.14404 4.2793C3.89795 4.76237 3.7111 5.39583 3.5835 6.17969C3.45589 6.96354 3.39209 7.91602 3.39209 9.03711L3.39209 12.9062C3.39209 13.7995 3.43311 14.5879 3.51514 15.2715C3.60628 15.9551 3.72933 16.5475 3.88428 17.0488C4.04834 17.541 4.24886 17.9466 4.48584 18.2656C4.72282 18.5846 4.99626 18.8216 5.30615 18.9766C5.61605 19.1224 5.95329 19.1953 6.31787 19.1953C6.80094 19.1953 7.22021 19.0768 7.57568 18.8398C7.94027 18.6029 8.24561 18.2337 8.4917 17.7324C8.73779 17.222 8.92008 16.5703 9.03857 15.7773C9.16618 14.9753 9.22998 14.0182 9.22998 12.9062ZM17.939 9.80273H19.4976C20.1903 9.80273 20.7645 9.6569 21.2202 9.36523C21.6759 9.06445 22.0132 8.65885 22.2319 8.14844C22.4598 7.62891 22.5737 7.04557 22.5737 6.39844C22.5737 5.63281 22.4735 4.99023 22.2729 4.4707C22.0724 3.95117 21.7716 3.55924 21.3706 3.29492C20.9787 3.0306 20.4819 2.89844 19.8804 2.89844C19.3153 2.89844 18.8231 3.03971 18.4038 3.32227C17.9845 3.5957 17.661 3.98763 17.4331 4.49805C17.2052 5.00846 17.0913 5.61003 17.0913 6.30273L14.6851 6.30273C14.6851 5.29102 14.8947 4.37044 15.314 3.54102C15.7424 2.71159 16.3439 2.05078 17.1187 1.55859C17.9025 1.06641 18.8231 0.820313 19.8804 0.820313C20.8921 0.820313 21.7808 1.03451 22.5464 1.46289C23.312 1.88216 23.909 2.51107 24.3374 3.34961C24.7749 4.17904 24.9937 5.21354 24.9937 6.45313C24.9937 6.95443 24.8979 7.49219 24.7065 8.06641C24.5243 8.63151 24.228 9.16016 23.8179 9.65234C23.4168 10.1445 22.8882 10.5501 22.2319 10.8691C21.5848 11.179 20.7918 11.334 19.853 11.334H17.939V9.80273ZM17.939 11.8809V10.3633H19.853C20.965 10.3633 21.8719 10.5137 22.5737 10.8145C23.2756 11.1152 23.8179 11.5163 24.2007 12.0176C24.5835 12.5189 24.8478 13.0703 24.9937 13.6719C25.1486 14.2643 25.2261 14.8568 25.2261 15.4492C25.2261 16.3789 25.0894 17.2038 24.8159 17.9238C24.5516 18.6439 24.1733 19.2546 23.6812 19.7559C23.1981 20.2572 22.633 20.6354 21.9858 20.8906C21.3387 21.1458 20.6323 21.2734 19.8667 21.2734C19.1193 21.2734 18.4266 21.1504 17.7886 20.9043C17.1506 20.6582 16.59 20.3027 16.1069 19.8379C15.6239 19.3639 15.2456 18.7852 14.9722 18.1016C14.7078 17.4089 14.5757 16.6204 14.5757 15.7363H16.9956C16.9956 16.429 17.1095 17.0352 17.3374 17.5547C17.5653 18.0742 17.8934 18.4798 18.3218 18.7715C18.7502 19.054 19.2651 19.1953 19.8667 19.1953C20.4683 19.1953 20.9878 19.0632 21.4253 18.7988C21.8628 18.5254 22.2 18.1152 22.437 17.5684C22.6831 17.0215 22.8062 16.3333 22.8062 15.5039C22.8062 14.6745 22.6694 13.9954 22.396 13.4668C22.1317 12.929 21.7534 12.5326 21.2612 12.2773C20.769 12.013 20.1812 11.8809 19.4976 11.8809H17.939Z"
        fill="#DF3D3A" />
</svg>