<svg width="16" height="16" viewBox="0 0 20 25" fill="none" xmlns="http://www.w3.org/2000/svg">
    <path
        d="M7.74023 6.75781V8.92578C7.74023 10.0911 7.64909 11.0742 7.4668 11.875C7.29102 12.6758 7.03711 13.3203 6.70508 13.8086C6.37305 14.2969 5.97266 14.6517 5.50391 14.873C5.04167 15.0879 4.52083 15.1953 3.94141 15.1953C3.48568 15.1953 3.05924 15.127 2.66211 14.9902C2.27148 14.8535 1.91992 14.6354 1.60742 14.3359C1.29492 14.0299 1.02799 13.6328 0.806641 13.1445C0.585286 12.6562 0.416016 12.0638 0.298828 11.3672C0.181641 10.6706 0.123047 9.85677 0.123047 8.92578L0.123047 6.75781C0.123047 5.59245 0.214193 4.61589 0.396484 3.82812C0.578776 3.04036 0.835937 2.40885 1.16797 1.93359C1.50651 1.45182 1.9069 1.10677 2.36914 0.898438C2.83789 0.690104 3.35872 0.585938 3.93164 0.585938C4.39388 0.585938 4.82031 0.654297 5.21094 0.791016C5.60807 0.921224 5.95964 1.13281 6.26562 1.42578C6.57812 1.71224 6.84505 2.09635 7.06641 2.57813C7.28776 3.05339 7.45378 3.63607 7.56445 4.32617C7.68164 5.01628 7.74023 5.82682 7.74023 6.75781ZM6.02148 9.21875V6.45508C6.02148 5.81706 5.99219 5.25716 5.93359 4.77539C5.875 4.28711 5.79036 3.87044 5.67969 3.52539C5.56901 3.18034 5.42578 2.90039 5.25 2.68555C5.08073 2.4707 4.88542 2.31445 4.66406 2.2168C4.44271 2.11263 4.19857 2.06055 3.93164 2.06055C3.59961 2.06055 3.30339 2.14193 3.04297 2.30469C2.78906 2.46094 2.57096 2.71159 2.38867 3.05664C2.21289 3.40169 2.07943 3.85417 1.98828 4.41406C1.89714 4.97396 1.85156 5.6543 1.85156 6.45508L1.85156 9.21875C1.85156 9.85677 1.88086 10.4199 1.93945 10.9082C2.00456 11.3965 2.09245 11.8197 2.20312 12.1777C2.32031 12.5293 2.46354 12.819 2.63281 13.0469C2.80208 13.2747 2.9974 13.444 3.21875 13.5547C3.4401 13.6589 3.68099 13.7109 3.94141 13.7109C4.28646 13.7109 4.58594 13.6263 4.83984 13.457C5.10026 13.2878 5.31836 13.0241 5.49414 12.666C5.66992 12.3014 5.80013 11.8359 5.88477 11.2695C5.97591 10.6966 6.02148 10.013 6.02148 9.21875ZM15.1719 0.703125L15.1719 15H13.4434L13.4434 2.95898L10.4551 4.28711V2.65625L14.9082 0.703125H15.1719Z"
        fill="#DF3D3A" />
</svg>