<svg width="18" height="16" viewBox="0 0 20 25" fill="none" xmlns="http://www.w3.org/2000/svg">
    <path
        d="M7.74023 8.93555C7.74023 11.0319 7.43424 12.6009 6.82227 13.6426C6.21029 14.6777 5.25 15.1953 3.94141 15.1953C2.67187 15.1953 1.72461 14.6973 1.09961 13.7012C0.474609 12.7051 0.149089 11.2077 0.123047 9.20898L0.123047 6.76758C0.123047 4.69076 0.429036 3.14128 1.04102 2.11914C1.65951 1.09701 2.61979 0.585938 3.92187 0.585938C5.20443 0.585938 6.15169 1.07096 6.76367 2.04102C7.38216 3.01107 7.70768 4.47917 7.74023 6.44531V8.93555ZM6.01172 6.46484C6.01172 4.96094 5.8457 3.85417 5.51367 3.14453C5.18164 2.42839 4.65104 2.07031 3.92187 2.07031C3.21224 2.07031 2.69141 2.42188 2.35937 3.125C2.02734 3.82161 1.85482 4.8763 1.8418 6.28906L1.8418 9.21875C1.8418 10.7161 2.01432 11.8424 2.35937 12.5977C2.70443 13.3464 3.23177 13.7207 3.94141 13.7207C4.64453 13.7207 5.16211 13.3659 5.49414 12.6562C5.82617 11.9466 5.9987 10.8626 6.01172 9.4043V6.46484ZM12.2324 7.01172H13.3359C14.0456 7.01172 14.5924 6.79362 14.9766 6.35742C15.3607 5.92122 15.5527 5.32552 15.5527 4.57031C15.5527 2.90365 14.9082 2.07031 13.6191 2.07031C13.0007 2.07031 12.5156 2.29492 12.1641 2.74414C11.8125 3.19336 11.6367 3.78255 11.6367 4.51172H9.91797C9.91797 3.3724 10.263 2.4349 10.9531 1.69922C11.6497 0.957031 12.5384 0.585938 13.6191 0.585938C14.7389 0.585938 15.6276 0.9375 16.2852 1.64063C16.9427 2.33724 17.2715 3.32682 17.2715 4.60938C17.2715 5.26693 17.099 5.88216 16.7539 6.45508C16.4154 7.02148 15.9727 7.43815 15.4258 7.70508C16.7669 8.19987 17.4375 9.3099 17.4375 11.0352C17.4375 12.3047 17.0827 13.3171 16.373 14.0723C15.6699 14.821 14.7487 15.1953 13.6094 15.1953C12.4831 15.1953 11.5716 14.8405 10.875 14.1309C10.1849 13.4147 9.83984 12.4544 9.83984 11.25H11.5684C11.5684 12.0052 11.7507 12.6074 12.1152 13.0566C12.4798 13.4993 12.9779 13.7207 13.6094 13.7207C14.2539 13.7207 14.765 13.5026 15.1426 13.0664C15.5267 12.6302 15.7187 11.9661 15.7187 11.0742C15.7187 9.34896 14.9017 8.48633 13.2676 8.48633H12.2324V7.01172Z"
        fill="#DF3D3A" />
</svg>