<svg width="18" height="16" viewBox="0 0 20 25" fill="none" xmlns="http://www.w3.org/2000/svg">
    <path
        d="M7.74023 8.93555C7.74023 11.0319 7.43424 12.6009 6.82227 13.6426C6.21029 14.6777 5.25 15.1953 3.94141 15.1953C2.67187 15.1953 1.72461 14.6973 1.09961 13.7012C0.474609 12.7051 0.149089 11.2077 0.123047 9.20898L0.123047 6.76758C0.123047 4.69076 0.429036 3.14128 1.04102 2.11914C1.65951 1.09701 2.61979 0.585938 3.92187 0.585938C5.20443 0.585938 6.15169 1.07096 6.76367 2.04102C7.38216 3.01107 7.70768 4.47917 7.74023 6.44531V8.93555ZM6.01172 6.46484C6.01172 4.96094 5.8457 3.85417 5.51367 3.14453C5.18164 2.42839 4.65104 2.07031 3.92187 2.07031C3.21224 2.07031 2.69141 2.42188 2.35937 3.125C2.02734 3.82161 1.85482 4.8763 1.8418 6.28906L1.8418 9.21875C1.8418 10.7161 2.01432 11.8424 2.35937 12.5977C2.70443 13.3464 3.23177 13.7207 3.94141 13.7207C4.64453 13.7207 5.16211 13.3659 5.49414 12.6562C5.82617 11.9466 5.9987 10.8626 6.01172 9.4043V6.46484ZM17.9746 15L10.0254 15V13.7012L14.0781 8.33008C14.6901 7.50326 15.1133 6.82617 15.3477 6.29883C15.5885 5.76497 15.709 5.20182 15.709 4.60938C15.709 3.85417 15.5332 3.24219 15.1816 2.77344C14.8301 2.30469 14.3678 2.07031 13.7949 2.07031C13.0723 2.07031 12.5124 2.32096 12.1152 2.82227C11.7246 3.31706 11.5293 4.0332 11.5293 4.9707H9.80078C9.80078 3.66211 10.1589 2.60417 10.875 1.79688C11.5911 0.989583 12.5645 0.585938 13.7949 0.585938C14.9277 0.585938 15.8197 0.934245 16.4707 1.63086C17.1217 2.32096 17.4473 3.24219 17.4473 4.39453C17.4473 5.80078 16.7148 7.46419 15.25 9.38477L12.0859 13.5254H17.9746V15Z"
        fill="#DF3D3A" />
</svg>