<svg width="24" height="24" viewBox="0 0 24 24" fill="none" xmlns="http://www.w3.org/2000/svg">
<g clip-path="url(#clip0_151_591)">
<path d="M18.0915 5.36396C18.482 5.75449 18.482 6.38765 18.0915 6.77818L13.1425 11.7272L18.0915 16.6777C18.482 17.0682 18.482 17.7014 18.0915 18.0919C17.701 18.4824 17.0678 18.4824 16.6773 18.0919L11.7282 13.1414L6.77779 18.0919C6.38727 18.4824 5.7541 18.4824 5.36358 18.0919C4.97306 17.7014 4.97306 17.0682 5.36358 16.6777L10.314 11.7272L5.36358 6.77817C4.97306 6.38764 4.97306 5.75448 5.36358 5.36396C5.75411 4.97343 6.38727 4.97343 6.7778 5.36396L11.7282 10.313L16.6773 5.36396C17.0678 4.97344 17.701 4.97344 18.0915 5.36396Z" fill="white" fill-opacity="0.8"/>
</g>
<defs>
<clipPath id="clip0_151_591">
<rect width="24" height="24" fill="white"/>
</clipPath>
</defs>
</svg>
