<svg xmlns="http://www.w3.org/2000/svg" width="32" height="32" fill="none"><ellipse cx="16.057" cy="16" fill="#fff" fill-opacity=".1" rx="15.943" ry="16"/><path fill="#E7E7E7" d="M16.866 18.996h-1.728c.006-.625.055-1.136.146-1.533.091-.404.241-.772.45-1.104.208-.332.488-.71.84-1.132.234-.306.455-.593.663-.86.215-.273.388-.566.518-.879.13-.319.195-.7.195-1.142 0-.45-.065-.837-.195-1.162a1.581 1.581 0 0 0-.557-.752c-.24-.176-.537-.264-.888-.264-.28 0-.554.068-.82.205-.261.137-.48.348-.655.635-.17.28-.254.648-.254 1.103h-1.729c.014-.735.17-1.367.47-1.894a3.14 3.14 0 0 1 1.23-1.211c.52-.28 1.107-.42 1.758-.42.71 0 1.315.15 1.816.45.501.299.882.728 1.143 1.288.267.554.4 1.211.4 1.973 0 .586-.108 1.126-.322 1.621a6.745 6.745 0 0 1-.791 1.377c-.32.43-.648.84-.987 1.23-.28.332-.468.707-.566 1.123a6.305 6.305 0 0 0-.137 1.348ZM15.1 22.092c0-.293.081-.54.244-.742.169-.202.413-.303.732-.303.326 0 .57.1.733.303.169.201.253.449.253.742 0 .28-.084.52-.253.723-.163.201-.407.302-.733.302-.319 0-.563-.1-.732-.303a1.116 1.116 0 0 1-.244-.722Z"/></svg>