<svg width="42" height="42" viewBox="0 0 42 42" fill="none" xmlns="http://www.w3.org/2000/svg">
<circle cx="21" cy="21" r="21" fill="white" fill-opacity="0.1"/>
<path d="M19.293 25.3945C19.293 24.3008 19.4069 23.4121 19.6348 22.7285C19.8626 22.0449 20.4186 21.1745 21.3027 20.1172L22.2598 18.8867C22.8978 17.9935 23.2168 17.0638 23.2168 16.0977C23.2168 15.1406 23.0163 14.3932 22.6152 13.8555C22.2233 13.3086 21.6582 13.0352 20.9199 13.0352C20.2272 13.0352 19.6484 13.2812 19.1836 13.7734C18.7279 14.2656 18.5 14.9264 18.5 15.7559H16.0938C16.112 14.252 16.5677 13.0534 17.4609 12.1602C18.3542 11.2669 19.5072 10.8203 20.9199 10.8203C22.3874 10.8203 23.5404 11.2806 24.3789 12.2012C25.2174 13.1217 25.6367 14.3932 25.6367 16.0156C25.6367 17.5651 25.0033 19.1191 23.7363 20.6777L22.4785 22.1953C21.959 22.9336 21.6992 24 21.6992 25.3945H19.293ZM20.6055 28.2793C21.0612 28.2793 21.403 28.4206 21.6309 28.7031C21.8678 28.9766 21.9863 29.3184 21.9863 29.7285C21.9863 30.1387 21.8678 30.4805 21.6309 30.7539C21.403 31.0182 21.0612 31.1504 20.6055 31.1504C20.1406 31.1504 19.7943 31.0182 19.5664 30.7539C19.3477 30.4805 19.2383 30.1387 19.2383 29.7285C19.2383 29.3184 19.3477 28.9766 19.5664 28.7031C19.7943 28.4206 20.1406 28.2793 20.6055 28.2793Z" fill="#E7E7E7"/>
</svg>
